<?xml version="1.0" standalone="no"?>
<!DOCTYPE svg PUBLIC "-//W3C//DTD SVG 20010904//EN"
 "http://www.w3.org/TR/2001/REC-SVG-20010904/DTD/svg10.dtd">
<svg version="1.0" xmlns="http://www.w3.org/2000/svg"
 width="1200.000000pt" height="1644.000000pt" viewBox="0 0 1200.000000 1644.000000"
 preserveAspectRatio="xMidYMid meet">

<g transform="translate(0.000000,1644.000000) scale(0.100000,-0.100000)"
fill="hsl(0, 0%, 11%)" stroke="none">
<path d="M816 16103 c-28 -1384 -36 -4561 -16 -6583 5 -553 12 -1479 16 -2057
l7 -1053 -411 0 -412 0 0 -820 0 -820 410 0 410 0 0 -495 0 -495 -410 0 -410
0 0 -820 0 -820 410 0 410 0 0 -1070 0 -1070 825 0 825 0 0 1070 0 1070 3120
0 3120 0 0 820 0 820 -3120 0 -3120 0 0 495 0 495 3120 0 3120 0 0 820 0 820
-3120 0 -3120 0 0 495 0 495 2648 3 c2883 4 2684 0 3032 58 1651 276 3018
1455 3545 3054 167 509 245 1092 216 1620 -36 665 -188 1241 -480 1820 -221
437 -461 772 -806 1124 -378 386 -776 674 -1250 905 -464 227 -902 355 -1465
428 l-165 22 -3461 3 -3461 3 -7 -337z m6754 -1314 c475 -30 918 -167 1314
-408 739 -448 1224 -1180 1361 -2051 26 -160 31 -549 11 -724 -77 -662 -353
-1241 -816 -1707 -244 -247 -466 -407 -775 -559 -338 -168 -682 -261 -1065
-290 -86 -6 -1036 -10 -2632 -10 l-2498 0 0 2880 0 2880 2468 0 c1602 0 2525
-4 2632 -11z"/>
</g>
</svg>
